<svg width="70" height="70" viewBox="0 0 70 70" fill="none" xmlns="http://www.w3.org/2000/svg">
<g filter="url(#filter0_d)">
<path d="M10 29.2C10 22.4794 10 19.1191 11.3079 16.5521C12.4584 14.2942 14.2942 12.4584 16.5521 11.3079C19.1191 10 22.4794 10 29.2 10H40.8C47.5206 10 50.8809 10 53.4479 11.3079C55.7058 12.4584 57.5416 14.2942 58.6921 16.5521C60 19.1191 60 22.4794 60 29.2V40.8C60 47.5206 60 50.8809 58.6921 53.4479C57.5416 55.7058 55.7058 57.5416 53.4479 58.6921C50.8809 60 47.5206 60 40.8 60H29.2C22.4794 60 19.1191 60 16.5521 58.6921C14.2942 57.5416 12.4584 55.7058 11.3079 53.4479C10 50.8809 10 47.5206 10 40.8V29.2Z" fill="#00D173"/>
</g>
<path d="M41.7308 34.0385H35.9616V28.2692C35.9616 28.0142 35.8603 27.7697 35.68 27.5893C35.4996 27.409 35.2551 27.3077 35 27.3077C34.745 27.3077 34.5005 27.409 34.3201 27.5893C34.1398 27.7697 34.0385 28.0142 34.0385 28.2692V34.0385H28.2693C28.0143 34.0385 27.7697 34.1398 27.5894 34.3201C27.409 34.5004 27.3077 34.745 27.3077 35C27.3077 35.255 27.409 35.4996 27.5894 35.6799C27.7697 35.8602 28.0143 35.9616 28.2693 35.9616H34.0385V41.7308C34.0385 41.9858 34.1398 42.2304 34.3201 42.4107C34.5005 42.591 34.745 42.6923 35 42.6923C35.2551 42.6923 35.4996 42.591 35.68 42.4107C35.8603 42.2304 35.9616 41.9858 35.9616 41.7308V35.9616H41.7308C41.9858 35.9616 42.2304 35.8602 42.4107 35.6799C42.5911 35.4996 42.6924 35.255 42.6924 35C42.6924 34.745 42.5911 34.5004 42.4107 34.3201C42.2304 34.1398 41.9858 34.0385 41.7308 34.0385Z" fill="white"/>
<defs>
<filter id="filter0_d" x="0" y="0" width="70" height="70" filterUnits="userSpaceOnUse" color-interpolation-filters="sRGB">
<feFlood flood-opacity="0" result="BackgroundImageFix"/>
<feColorMatrix in="SourceAlpha" type="matrix" values="0 0 0 0 0 0 0 0 0 0 0 0 0 0 0 0 0 0 127 0"/>
<feOffset/>
<feGaussianBlur stdDeviation="5"/>
<feColorMatrix type="matrix" values="0 0 0 0 0 0 0 0 0 0 0 0 0 0 0 0 0 0 0.05 0"/>
<feBlend mode="normal" in2="BackgroundImageFix" result="effect1_dropShadow"/>
<feBlend mode="normal" in="SourceGraphic" in2="effect1_dropShadow" result="shape"/>
</filter>
</defs>
</svg>
