<svg width="24" height="24" viewBox="0 0 24 24" fill="none" xmlns="http://www.w3.org/2000/svg">
<path d="M13.9609 17.9475C14.2253 17.9475 14.4788 17.8424 14.6657 17.6555C14.8527 17.4686 14.9577 17.2151 14.9577 16.9507V14.9573C14.9577 14.6929 14.8527 14.4394 14.6657 14.2525C14.4788 14.0656 14.2253 13.9605 13.9609 13.9605C13.6966 13.9605 13.4431 14.0656 13.2562 14.2525C13.0692 14.4394 12.9642 14.6929 12.9642 14.9573V16.9507C12.9642 17.2151 13.0692 17.4686 13.2562 17.6555C13.4431 17.8424 13.6966 17.9475 13.9609 17.9475ZM9.97403 17.9475C10.2384 17.9475 10.4919 17.8424 10.6788 17.6555C10.8657 17.4686 10.9708 17.2151 10.9708 16.9507V14.9573C10.9708 14.6929 10.8657 14.4394 10.6788 14.2525C10.4919 14.0656 10.2384 13.9605 9.97403 13.9605C9.70968 13.9605 9.45615 14.0656 9.26923 14.2525C9.08231 14.4394 8.9773 14.6929 8.9773 14.9573V16.9507C8.9773 17.2151 9.08231 17.4686 9.26923 17.6555C9.45615 17.8424 9.70968 17.9475 9.97403 17.9475ZM18.9446 5.9867H17.5691L15.8448 2.54798C15.7921 2.42145 15.7139 2.30715 15.615 2.21221C15.5161 2.11728 15.3987 2.04375 15.2702 1.99624C15.1416 1.94872 15.0046 1.92822 14.8678 1.93604C14.731 1.94385 14.5972 1.97981 14.4749 2.04165C14.3526 2.1035 14.2443 2.18991 14.1569 2.29548C14.0695 2.40105 14.0048 2.52352 13.9668 2.65523C13.9289 2.78693 13.9185 2.92505 13.9364 3.06095C13.9542 3.19684 13.9999 3.3276 14.0706 3.44504L15.3364 5.9867H8.59854L9.86439 3.44504C9.96113 3.21271 9.96641 2.95238 9.87916 2.71632C9.79191 2.48026 9.61858 2.28594 9.39399 2.17238C9.1694 2.05882 8.91016 2.03443 8.66832 2.1041C8.42649 2.17377 8.21996 2.33234 8.09021 2.54798L6.36586 5.9867H4.99038C4.28588 5.99742 3.60779 6.25656 3.07571 6.71843C2.54363 7.1803 2.19173 7.81523 2.08209 8.51123C1.97244 9.20722 2.11209 9.91959 2.47641 10.5227C2.84072 11.1258 3.4063 11.5808 4.07338 11.8076L4.81096 19.2432C4.88534 19.9834 5.23292 20.6692 5.78584 21.1668C6.33875 21.6644 7.05729 21.9381 7.80115 21.9344H16.1538C16.8976 21.9381 17.6162 21.6644 18.1691 21.1668C18.722 20.6692 19.0696 19.9834 19.1439 19.2432L19.8815 11.8076C20.5501 11.5801 21.1165 11.1234 21.4806 10.5183C21.8446 9.91322 21.9828 9.1988 21.8706 8.50159C21.7583 7.80439 21.403 7.16941 20.8675 6.70911C20.3319 6.2488 19.6507 5.99289 18.9446 5.9867ZM17.1405 19.0439C17.1157 19.2906 16.9999 19.5192 16.8156 19.6851C16.6313 19.8509 16.3917 19.9422 16.1438 19.9409H7.79119C7.54323 19.9422 7.30372 19.8509 7.11941 19.6851C6.93511 19.5192 6.81925 19.2906 6.79446 19.0439L6.08678 11.9671H17.8482L17.1405 19.0439ZM18.9446 9.97362H4.99038C4.72603 9.97362 4.4725 9.86861 4.28558 9.68169C4.09866 9.49476 3.99365 9.24124 3.99365 8.97689C3.99365 8.71254 4.09866 8.45902 4.28558 8.2721C4.4725 8.08517 4.72603 7.98016 4.99038 7.98016H18.9446C19.2089 7.98016 19.4625 8.08517 19.6494 8.2721C19.8363 8.45902 19.9413 8.71254 19.9413 8.97689C19.9413 9.24124 19.8363 9.49476 19.6494 9.68169C19.4625 9.86861 19.2089 9.97362 18.9446 9.97362Z" fill="white"/>
</svg>
