<svg width="24" height="24" viewBox="0 0 24 24" fill="none" xmlns="http://www.w3.org/2000/svg">
<path d="M20 7.99281L14 2.73909C13.45 2.24773 12.7379 1.97607 12 1.97607C11.2621 1.97607 10.55 2.24773 10 2.73909L4 7.99281C3.68237 8.27654 3.4289 8.62461 3.25647 9.01383C3.08404 9.40305 2.99661 9.8245 3 10.2501V18.9797C3 19.7744 3.31607 20.5365 3.87868 21.0984C4.44129 21.6604 5.20435 21.9761 6 21.9761H18C18.7956 21.9761 19.5587 21.6604 20.1213 21.0984C20.6839 20.5365 21 19.7744 21 18.9797V10.2401C21.002 9.81619 20.9138 9.39667 20.7415 9.00927C20.5691 8.62188 20.3164 8.27542 20 7.99281ZM14 19.9785H10V14.9844C10 14.7195 10.1054 14.4655 10.2929 14.2782C10.4804 14.0909 10.7348 13.9856 11 13.9856H13C13.2652 13.9856 13.5196 14.0909 13.7071 14.2782C13.8946 14.4655 14 14.7195 14 14.9844V19.9785ZM19 18.9797C19 19.2446 18.8946 19.4986 18.7071 19.6859C18.5196 19.8732 18.2652 19.9785 18 19.9785H16V14.9844C16 14.1897 15.6839 13.4276 15.1213 12.8657C14.5587 12.3037 13.7956 11.988 13 11.988H11C10.2043 11.988 9.44129 12.3037 8.87868 12.8657C8.31607 13.4276 8 14.1897 8 14.9844V19.9785H6C5.73478 19.9785 5.48043 19.8732 5.29289 19.6859C5.10536 19.4986 5 19.2446 5 18.9797V10.2401C5.00018 10.0983 5.03059 9.95815 5.08922 9.82899C5.14784 9.69983 5.23333 9.58461 5.34 9.49101L11.34 4.24729C11.5225 4.08716 11.7571 3.99885 12 3.99885C12.2429 3.99885 12.4775 4.08716 12.66 4.24729L18.66 9.49101C18.7667 9.58461 18.8522 9.69983 18.9108 9.82899C18.9694 9.95815 18.9998 10.0983 19 10.2401V18.9797Z" fill="#00D173"/>
</svg>
