<svg width="10" height="20" viewBox="0 0 10 20" fill="none" xmlns="http://www.w3.org/2000/svg">
<path d="M6.3884 2.14762C6.3884 3.33197 5.42492 4.2955 4.24057 4.2955C3.05638 4.2955 2.0929 3.33197 2.0929 2.14762C2.0929 0.96343 3.05633 0 4.24057 0C4.63163 0 4.99822 0.105557 5.31433 0.288873C5.61692 0.464692 6.25155 1.02636 6.3694 1.86649C6.38151 1.95858 6.3884 2.05232 6.3884 2.14762Z" fill="#D9E0DD"/>
<path d="M6.73614 5.32039L9.2416 9.87546C9.43734 10.2313 9.31921 10.7004 8.97811 10.9212L8.80978 11.0301C8.6905 11.1073 8.55378 11.1481 8.41434 11.1481C8.15532 11.1481 7.91471 11.0058 7.78633 10.7765L6.51015 8.49785V11.13C6.51648 11.1448 6.52347 11.1592 6.52925 11.1743L7.20612 12.9404C7.39064 13.422 7.59321 14.2299 7.65775 14.7415L8.1306 18.4909C8.20846 19.1087 7.77944 19.7306 7.1742 19.8772L7.15626 19.8815C7.0691 19.9026 6.98058 19.9133 6.89337 19.9133C6.35935 19.9133 5.93094 19.5192 5.8747 18.9761L5.55642 15.9025C5.50771 15.4317 5.32837 14.6587 5.16481 14.2144L4.57087 12.6011L3.04825 19.1298C2.92877 19.6422 2.47965 20 1.95624 20C1.85646 20 1.75648 19.9867 1.65902 19.9603L1.64123 19.9555C1.03046 19.7904 0.650453 19.1548 0.794161 18.5386L2.46256 11.3849V7.92166C2.35067 8.07859 2.24999 8.26613 2.20812 8.40858L1.50777 10.6843C1.50777 10.8476 1.30115 11.5048 0.624062 11.2499C-0.0384054 11.0006 -0.0558051 10.5709 0.0461155 10.3136C0.0481763 10.276 0.0521975 10.2382 0.0600891 10.2005L0.624063 7.50315C0.689961 7.18799 0.915349 6.75837 1.13717 6.52509L2.50744 5.08395C2.57505 5.01282 2.86126 4.74973 3.21658 4.74973H5.771C6.34005 4.74973 6.56016 5.0004 6.73614 5.32039Z" fill="#D9E0DD"/>
</svg>
