<svg width="21" height="20" viewBox="0 0 21 20" fill="none" xmlns="http://www.w3.org/2000/svg">
<path d="M9.84751 3.35731C10.7746 3.35731 11.5262 2.60575 11.5262 1.67865C11.5262 0.751559 10.7746 0 9.84751 0C8.92042 0 8.16886 0.751559 8.16886 1.67865C8.16886 2.60575 8.92042 3.35731 9.84751 3.35731Z" fill="#00D173"/>
<path d="M17.3719 14.346C17.0492 14.346 16.7394 14.402 16.4512 14.504L16.3147 14.0984C16.5802 14.0161 16.8618 13.9709 17.1535 13.969C17.5079 13.9668 17.8143 13.6999 17.8363 13.3461C17.8604 12.9594 17.5538 12.6383 17.1723 12.6383C16.7256 12.6383 16.2948 12.7081 15.8902 12.837L14.9842 10.1449H15.3917C15.554 10.4933 15.87 10.7556 16.2528 10.8438C16.3985 10.8774 16.5381 10.7668 16.5381 10.6168V8.60726C16.5381 8.45826 16.3996 8.34653 16.2544 8.37982C15.8709 8.46775 15.5542 8.73031 15.3917 9.07918H15.1965C15.0756 9.23453 14.9256 9.36532 14.7551 9.46388C14.3204 9.71516 13.9514 9.66756 13.6942 9.6526C13.7558 9.83585 14.1218 10.9232 14.2003 11.1567C14.1255 11.2265 14.3558 10.8792 11.2071 15.8312H11.1772C11.065 16.2071 10.9033 16.5114 10.5502 16.7705C10.486 16.8176 10.4182 16.8597 10.348 16.8968H11.2157C11.5738 16.8968 11.9071 16.7139 12.0994 16.4117L14.6301 12.4339L14.9182 13.2899C13.7357 14.0367 12.9466 15.3523 12.9388 16.8495C12.937 17.2122 13.218 17.5242 13.5805 17.5367C13.9587 17.5498 14.2695 17.2471 14.2695 16.8718C14.2695 15.9558 14.6963 15.1382 15.361 14.6058L15.5148 15.0626C14.9275 15.5944 14.5685 16.3739 14.6046 17.2345C14.6645 18.6576 15.8169 19.8159 17.2397 19.8824C18.8268 19.9566 20.1417 18.6868 20.1417 17.1157C20.1417 15.5885 18.8992 14.346 17.3719 14.346ZM17.3719 18.1114C16.8229 18.1114 16.3763 17.6648 16.3763 17.1158C16.3763 16.5668 16.8229 16.1202 17.3719 16.1202C17.9209 16.1202 18.3675 16.5668 18.3675 17.1158C18.3675 17.6648 17.9209 18.1114 17.3719 18.1114Z" fill="#00D173"/>
<path d="M11.7867 11.2337C11.9231 10.7767 11.6845 10.2917 11.2392 10.1208L10.2071 9.72459L10.2686 9.41889C9.95866 9.31386 9.72309 9.05449 9.64802 8.73699L9.05229 6.20822L10.3048 8.35347C10.4332 8.57342 10.6632 8.71446 10.9175 8.72924L13.9509 8.90554C14.3709 8.92977 14.7299 8.60921 14.7543 8.19038C14.7786 7.77108 14.4585 7.4114 14.0391 7.38699L11.4128 7.23437L10.3658 5.44127L10.9593 5.98888L11.0303 5.63607C11.154 5.0221 10.7565 4.42419 10.1426 4.30052L8.16015 3.90125C7.54618 3.77762 6.94826 4.1751 6.82459 4.78902L6.18761 7.95206V4.90793C6.18761 4.69593 6.01573 4.52406 5.80374 4.52406H1.42624C1.21425 4.52406 1.04237 4.69593 1.04237 4.90793V10.4938H0.776223C0.347516 10.4938 0 10.8413 0 11.27C0 11.6987 0.347516 12.0462 0.776223 12.0462H3.96983V13.2291C2.66503 13.7226 1.68478 14.8767 1.43766 16.2836C1.38188 16.6012 1.62651 16.8925 1.94948 16.8925H2.62859C2.62269 16.9662 2.61884 17.0404 2.61884 17.1156C2.61884 18.6428 3.86134 19.8854 5.38864 19.8854C6.91589 19.8854 8.15844 18.6428 8.15844 17.1156C8.15844 17.0418 8.15468 16.969 8.14899 16.8967H8.80605C8.12755 16.5359 7.7775 15.7342 8.00345 14.9767L8.87762 12.0462H9.63954L8.70312 15.1854C8.55902 15.6684 8.83379 16.1768 9.31678 16.3209C9.79982 16.465 10.3082 16.1902 10.4522 15.7072L11.7867 11.2337ZM5.38859 18.1112C4.83963 18.1112 4.39303 17.6646 4.39303 17.1156C4.39303 17.039 4.40204 16.9644 4.41853 16.8926H6.35865C6.37515 16.9643 6.38416 17.0389 6.38416 17.1156C6.38416 17.6646 5.93751 18.1112 5.38859 18.1112ZM6.18765 10.4939V9.74152C6.31565 10.0345 6.51408 10.2936 6.7661 10.4939H6.18765Z" fill="#00D173"/>
</svg>
